<?xml version="1.0" encoding="UTF-8"?>
<!DOCTYPE svg PUBLIC "-//W3C//DTD SVG 1.1//EN" "http://www.w3.org/Graphics/SVG/1.1/DTD/svg11.dtd">
<svg version="1.1" xmlns="http://www.w3.org/2000/svg" xmlns:xlink="http://www.w3.org/1999/xlink" x="0px" y="0px" viewBox="0 0 612 730" xml:space="preserve">
    <path fill="#FB4056" d="M610.11,338.219c-0.877,7.103-2,14.115-3.349,21.035h0.001  c-0.006,0.028-0.012,0.056-0.018,0.084c-0.251,1.287-0.51,2.569-0.777,3.849c-0.008,0.041-0.017,0.082-0.025,0.122  c-0.273,1.31-0.556,2.616-0.846,3.918c-0.001,0.005-0.002,0.011-0.004,0.015c-3.834,17.195-9.107,33.769-15.673,49.609  c-0.006,0.014-0.012,0.027-0.018,0.041c-0.499,1.206-1.007,2.407-1.521,3.603c-0.005,0.012-0.01,0.024-0.016,0.036  c-7.285,16.932-16.056,33.002-26.131,48.07c-0.008,0.012-0.016,0.023-0.023,0.035c-0.709,1.061-1.425,2.116-2.147,3.167  c-0.013,0.019-0.026,0.038-0.039,0.058c-0.723,1.05-1.452,2.096-2.188,3.137c-0.008,0.011-0.016,0.022-0.023,0.034  c-9.699,13.721-20.5,26.559-32.259,38.401c-0.01,0.011-0.021,0.021-0.03,0.031c-0.889,0.895-1.782,1.783-2.682,2.666  c-0.023,0.023-0.047,0.045-0.07,0.069c-0.892,0.875-1.789,1.745-2.691,2.609c-0.023,0.022-0.047,0.044-0.069,0.066  c-0.912,0.872-1.828,1.738-2.75,2.599c-0.01,0.009-0.02,0.018-0.028,0.026c-11.259,10.504-23.305,20.136-36.023,28.808  c-0.001,0.001-0.003,0.002-0.005,0.003c-1.048,0.715-2.101,1.422-3.158,2.124c-0.025,0.017-0.051,0.033-0.075,0.05  c-1.04,0.689-2.084,1.373-3.132,2.049c-0.032,0.021-0.064,0.042-0.098,0.063c-1.049,0.677-2.102,1.347-3.159,2.01  c-0.024,0.016-0.05,0.031-0.074,0.047c-1.077,0.675-2.158,1.344-3.244,2.006l0,0c7.189,39.354,22.104,76.374,43.313,109.183  c-37.583,4.199-76.247,4.117-115.421-0.714c-80.188-9.889-153.477-38.535-216.024-80.984c-23.99,26.33-42.87,56.447-56.091,88.77  c-24.97-28.388-47.043-60.113-65.51-94.974c-60.605-114.411-72.376-235.688-41.678-348.04l0,0c3.325-14,7.532-24.819,12.813-38.21  c0.013-0.033,0.026-0.066,0.039-0.099c0.463-1.172,0.932-2.34,1.41-3.506c0.022-0.055,0.045-0.11,0.068-0.166  c0.269-0.655,0.545-1.308,0.818-1.961l0.774-1.498C82.663,64.08,210.143-14.689,347.886,2.298c1.515,0.187,3.024,0.388,4.531,0.596  c0.434,0.06,0.866,0.124,1.3,0.186c1.123,0.16,2.244,0.326,3.362,0.499c0.427,0.066,0.854,0.132,1.279,0.199  c1.338,0.212,2.672,0.432,4.002,0.661c0.151,0.026,0.304,0.051,0.456,0.077c1.584,0.275,3.164,0.563,4.738,0.862  c0.072,0.014,0.144,0.028,0.217,0.042c1.473,0.281,2.94,0.574,4.405,0.876c0.203,0.042,0.405,0.084,0.607,0.126  c1.477,0.308,2.948,0.625,4.416,0.953c0.04,0.009,0.08,0.018,0.12,0.026c3.191,0.716,6.361,1.482,9.509,2.296l0,0  C531.106,47.002,628.849,186.373,610.11,338.219z M334.454,111.465c-104.872-12.934-200.376,61.571-213.313,166.41  c-12.938,104.839,61.59,200.313,166.462,213.246s200.376-61.57,213.314-166.41C513.854,219.873,439.326,124.399,334.454,111.465z   M292.621,450.137C210.418,440,152,365.163,162.141,282.986c10.142-82.177,85.001-140.577,167.204-130.439  c82.204,10.138,140.622,84.974,130.48,167.151C449.685,401.876,374.824,460.275,292.621,450.137z M316.566,255.301  c-25.504-3.145-48.729,14.973-51.874,40.468c-3.146,25.495,14.978,48.713,40.48,51.858c25.503,3.146,48.729-14.973,51.874-40.468  C360.193,281.664,342.069,258.446,316.566,255.301z"/>
</svg>